<svg width="114" height="45" viewBox="0 0 114 45" fill="none" xmlns="http://www.w3.org/2000/svg">
<path d="M19.1367 23.3789H8.12109L5.81641 30H0.679688L11.4219 1.5625H15.8555L26.6172 30H21.4609L19.1367 23.3789ZM9.50781 19.3945H17.75L13.6289 7.59766L9.50781 19.3945ZM32.6492 30H27.9031V8.86719H32.6492V30ZM27.6102 3.37891C27.6102 2.64974 27.838 2.04427 28.2938 1.5625C28.7625 1.08073 29.4266 0.839844 30.2859 0.839844C31.1453 0.839844 31.8094 1.08073 32.2781 1.5625C32.7469 2.04427 32.9813 2.64974 32.9813 3.37891C32.9813 4.09505 32.7469 4.69401 32.2781 5.17578C31.8094 5.64453 31.1453 5.87891 30.2859 5.87891C29.4266 5.87891 28.7625 5.64453 28.2938 5.17578C27.838 4.69401 27.6102 4.09505 27.6102 3.37891ZM47.0992 13.2031C46.4742 13.099 45.8297 13.0469 45.1656 13.0469C42.9911 13.0469 41.5263 13.8802 40.7711 15.5469V30H36.025V8.86719H40.5563L40.6734 11.2305C41.8193 9.39453 43.4078 8.47656 45.4391 8.47656C46.1161 8.47656 46.676 8.56771 47.1188 8.75L47.0992 13.2031ZM48.7562 30V1.5625H58.5023C61.7185 1.5625 64.1664 2.20703 65.8461 3.49609C67.5258 4.78516 68.3656 6.70573 68.3656 9.25781C68.3656 10.5599 68.0141 11.7318 67.3109 12.7734C66.6078 13.8151 65.5792 14.6224 64.225 15.1953C65.7615 15.612 66.9464 16.3997 67.7797 17.5586C68.626 18.7044 69.0492 20.0846 69.0492 21.6992C69.0492 24.3685 68.1898 26.4193 66.4711 27.8516C64.7654 29.2839 62.3174 30 59.1273 30H48.7562ZM53.6977 17.168V26.0547H59.1859C60.7354 26.0547 61.9464 25.6706 62.8187 24.9023C63.6911 24.1341 64.1273 23.0664 64.1273 21.6992C64.1273 18.7435 62.6169 17.2331 59.5961 17.168H53.6977ZM53.6977 13.5352H58.5414C60.0779 13.5352 61.2758 13.1901 62.1352 12.5C63.0076 11.7969 63.4437 10.8073 63.4437 9.53125C63.4437 8.125 63.0401 7.10938 62.2328 6.48438C61.4385 5.85938 60.1951 5.54688 58.5023 5.54688H53.6977V13.5352ZM76.1359 8.86719L76.2727 11.3086C77.8352 9.42057 79.8859 8.47656 82.425 8.47656C86.826 8.47656 89.0656 10.9961 89.1438 16.0352V30H84.3977V16.3086C84.3977 14.9674 84.1047 13.9779 83.5188 13.3398C82.9458 12.6888 82.0018 12.3633 80.6867 12.3633C78.7727 12.3633 77.3469 13.2292 76.4094 14.9609V30H71.6633V8.86719H76.1359ZM92.6562 30V1.5625H102.402C105.618 1.5625 108.066 2.20703 109.746 3.49609C111.426 4.78516 112.266 6.70573 112.266 9.25781C112.266 10.5599 111.914 11.7318 111.211 12.7734C110.508 13.8151 109.479 14.6224 108.125 15.1953C109.661 15.612 110.846 16.3997 111.68 17.5586C112.526 18.7044 112.949 20.0846 112.949 21.6992C112.949 24.3685 112.09 26.4193 110.371 27.8516C108.665 29.2839 106.217 30 103.027 30H92.6562ZM97.5977 17.168V26.0547H103.086C104.635 26.0547 105.846 25.6706 106.719 24.9023C107.591 24.1341 108.027 23.0664 108.027 21.6992C108.027 18.7435 106.517 17.2331 103.496 17.168H97.5977ZM97.5977 13.5352H102.441C103.978 13.5352 105.176 13.1901 106.035 12.5C106.908 11.7969 107.344 10.8073 107.344 9.53125C107.344 8.125 106.94 7.10938 106.133 6.48438C105.339 5.85938 104.095 5.54688 102.402 5.54688H97.5977V13.5352Z" fill="black"/>
<path d="M50.8218 37.048L53.4818 37.216C53.7245 37.216 53.9111 37.2067 54.0418 37.188L52.7258 39.652H52.4738C52.1191 39.652 51.6151 39.5587 50.9618 39.372C50.3085 39.1667 49.8418 39.064 49.5618 39.064C48.8338 39.064 48.2458 39.54 47.7978 40.492C47.7045 41.556 47.6578 42.396 47.6578 43.012C47.6578 43.628 47.6765 44.2907 47.7138 45H41.6378C41.2831 42.6107 41.1058 40.1467 41.1058 37.608C41.1058 35.0507 41.2365 32.8573 41.4978 31.028H56.4498C56.1138 33.044 55.8151 34.4533 55.5538 35.256L52.5298 35.396C52.6978 34.9293 52.7818 34.528 52.7818 34.192C52.7818 33.296 52.1005 32.848 50.7378 32.848C50.1405 32.848 49.5898 32.8947 49.0858 32.988C48.6751 34.6493 48.3391 36.348 48.0778 38.084C48.8245 37.3933 49.7391 37.048 50.8218 37.048ZM75.9138 44.776V45H69.4178C69.3431 43.9733 69.1844 42.872 68.9418 41.696C67.6351 43.0027 66.3284 44.104 65.0218 45H58.4978C58.3671 44.2347 58.3018 43.2267 58.3018 41.976C58.3018 40.7067 58.4884 39.4373 58.8618 38.168C60.2058 37.776 61.4938 37.1133 62.7258 36.18C63.9764 35.2467 64.8818 34.2387 65.4418 33.156C64.9191 32.3347 64.3871 31.616 63.8458 31H73.1418C74.9898 35.0507 75.9138 39.6427 75.9138 44.776ZM68.4378 39.652C67.9711 38.0467 67.3364 36.4787 66.5338 34.948C65.6564 37.524 65.1524 39.96 65.0218 42.256C66.4031 41.5093 67.5418 40.6413 68.4378 39.652ZM92.378 30.804H93.302C94.4966 30.804 95.3833 30.664 95.962 30.384C95.1406 31.5973 94.3473 32.652 93.582 33.548H93.134C92.182 33.548 91.258 33.3987 90.362 33.1C89.0926 34.1453 88.0753 35.536 87.31 37.272C89.2886 37.776 91.4913 38.0747 93.918 38.168C94.478 39.5867 94.8606 41.864 95.066 45H87.814C87.4966 43.6187 87.0113 42.3493 86.358 41.192C85.7233 40.016 85.0606 39.2133 84.37 38.784C84.2393 40.3147 84.174 41.5467 84.174 42.48C84.174 43.4133 84.202 44.2533 84.258 45H78.098C77.7433 42.256 77.566 39.9413 77.566 38.056C77.566 36.152 77.706 33.8 77.986 31H85.77C85.21 33.3147 84.8273 35.256 84.622 36.824C85.462 35.4427 86.3393 34.2853 87.254 33.352C88.1873 32.4 89.2886 31.5973 90.558 30.944C91.0433 30.8507 91.65 30.804 92.378 30.804ZM107.835 36.628L110.467 36.796C110.728 36.796 110.924 36.7867 111.055 36.768L109.739 39.232H109.487C109.132 39.232 108.628 39.1387 107.975 38.952C107.322 38.7467 106.855 38.644 106.575 38.644C105.81 38.644 105.203 39.1387 104.755 40.128C104.68 41.0427 104.624 41.9573 104.587 42.872C105.558 43.0587 106.323 43.152 106.883 43.152H107.135C107.938 43.152 108.572 42.9747 109.039 42.62C109.524 42.2653 109.87 41.6307 110.075 40.716L113.435 40.856C113.155 42.4613 112.782 43.8427 112.315 45H98.5668C98.1935 42.48 98.0068 39.9787 98.0068 37.496C98.0068 35.0133 98.1375 32.848 98.3988 31H113.407C113.071 33.016 112.772 34.4347 112.511 35.256C111.41 35.312 110.402 35.3493 109.487 35.368C109.636 34.9387 109.711 34.5373 109.711 34.164C109.711 33.268 109.039 32.82 107.695 32.82C107.191 32.82 106.631 32.876 106.015 32.988C105.604 34.7613 105.287 36.32 105.063 37.664C105.81 36.9733 106.734 36.628 107.835 36.628Z" fill="#D20000"/>
</svg>
