<svg height="438.85714pt" viewBox="0 0 438.85714 438.85714" width="438.85714pt" xmlns="http://www.w3.org/2000/svg"><path d="m372.855469 376.167969c42.5625-41.675781 66-97.335938 66-156.738281 0-59.410157-23.4375-115.082032-66-156.742188-41.285157-40.417969-95.777344-62.6875-153.425781-62.6875-57.644532 0-112.136719 22.269531-153.421876 62.6875-42.570312 41.667969-66.007812 97.332031-66.007812 156.742188 0 59.390624 23.4375 115.0625 66.007812 156.738281 14.964844 14.644531 31.824219 27.027343 50.109376 36.816406.007812.007813.027343.015625.042968.023437.054688.03125.113282.039063.167969.066407.0625.03125.117187.070312.179687.105469 2.222657 1.1875 4.472657 2.339843 6.730469 3.445312 3.9375 1.933594 7.855469 3.710938 11.707031 5.316406.03125.011719.0625.03125.09375.042969 0 .003906.003907.007813.003907.007813h.011719c.011718.003906.023437.011718.035156.015624.445312.1875.984375.378907 1.78125.65625l.484375.175782c.007812.003906.015625 0 .023437.003906 2.648438 1.070312 5.140625 2.039062 7.511719 2.925781.273437.097657.5.160157.769531.257813 3.210938 1.175781 6.273438 2.230468 9.222656 3.144531 1.132813.34375 2.304688.632813 3.472657.910156l1.859375.472657h.015625l.097656.027343c4.980469 1.394531 9.957031 2.765625 15.0625 3.816407.09375.015624.179687.046874.269531.066406.964844.195312 1.953125.308594 2.929688.464844 1.398437.222656 2.785156.476562 4.1875.667968l.492187.070313 5.703125.875c2.722656.457031 5.445313.914062 8.222656 1.191406 7.429688.746094 14.910157 1.121094 22.234376 1.121094 7.328124 0 14.8125-.375 22.238281-1.121094.003906-.003906.007812-.003906.011719-.003906 2.707031-.277344 5.371093-.714844 8.027343-1.160157l6.453125-.988281c2.375-.324219 4.742188-.652343 7.054688-1.117187 5.230468-1.0625 10.320312-2.480469 15.410156-3.910156l1.875-.472657c1.167969-.277343 2.328125-.554687 3.445312-.902343 2.554688-.789063 5.164063-1.664063 7.953126-2.664063.148437-.054687.292968-.101563.445312-.15625 2.972656-1.074219 6.167969-2.300781 9.773438-3.742187.550781-.1875 1.113281-.382813 1.652343-.609376.003907 0 .003907-.003906.007813-.003906.011718-.003906.023437-.007812.035156-.011718 3.65625-1.53125 7.328125-3.230469 11.027344-5.023438.304687-.148438.605468-.265625.910156-.414062 1.617188-.796876 3.222656-1.632813 4.824219-2.46875.71875-.371094 1.417969-.695313 2.140625-1.078126 2.027344-1.085937 3.96875-2.324218 5.960937-3.472656 11.5-6.628906 22.457031-14.183594 32.613281-22.8125 3.972657-3.375 7.832032-6.894531 11.566407-10.554687zm-25.65625-1.609375c-2.144531 1.769531-4.328125 3.492187-6.542969 5.171875-1.429688 1.085937-2.863281 2.164062-4.324219 3.210937-2.148437 1.542969-4.34375 3.011719-6.550781 4.464844-1.53125 1.011719-3.046875 2.046875-4.613281 3.019531-2.664063 1.652344-5.390625 3.203125-8.128907 4.730469-1.09375.609375-2.144531 1.269531-3.25 1.859375-.007812.007813-.019531.003906-.03125.011719-.289062.152344-.578124.292968-.867187.445312-2.054687 1.085938-4.144531 2.128906-6.261719 3.148438-2.042968.992187-4.09375 1.890625-6.144531 2.800781-1.441406.632813-2.824219 1.289063-4.324219 1.910156l-1.445312.527344c-.007813 0-.011719.007813-.019532.007813l-.015624.007812c-6.117188 2.472656-11.234376 4.320312-16.109376 5.820312-.003906.003907-.007812.007813-.015624.007813v.003906c-.75.230469-1.519532.410157-2.285157.589844-.769531.1875-1.539062.363281-2.304687.570313.34375-.355469.671875-.761719 1.011718-1.121094.992188-1.046875 1.964844-2.148438 2.9375-3.25 1.054688-1.195313 2.101563-2.402344 3.132813-3.660156.941406-1.148438 1.867187-2.335938 2.792969-3.539063 1.027344-1.339844 2.046875-2.707031 3.054687-4.113281.882813-1.234375 1.753907-2.496094 2.621094-3.785156 1.007813-1.496094 2-3.03125 2.980469-4.597657.824218-1.3125 1.640625-2.636719 2.441406-3.996093.984375-1.660157 1.945312-3.367188 2.898438-5.097657.761718-1.378906 1.519531-2.761719 2.261718-4.183593.953125-1.828126 1.878906-3.710938 2.800782-5.609376.695312-1.4375 1.394531-2.863281 2.074218-4.335937.925782-2.023437 1.820313-4.113281 2.714844-6.207031.617188-1.457032 1.246094-2.886719 1.847656-4.378906.90625-2.242188 1.769532-4.558594 2.632813-6.878907.542969-1.457031 1.097656-2.878906 1.625-4.363281.109375-.308594.226562-.597656.335937-.90625 1.304688.695312 2.648438 1.335938 3.933594 2.054688 1.203125.675781 2.40625 1.355468 3.589844 2.050781 4.210937 2.476562 8.34375 5.046875 12.332031 7.789062.136719.097657.285156.179688.421875.277344 4.101562 2.835937 8.035156 5.859375 11.882812 8.972656 1.066407.863281 2.109376 1.75 3.15625 2.632813 1.167969.988281 2.261719 2.046875 3.402344 3.058594-.644531.574218-1.265625 1.183593-1.917968 1.75-1.226563 1.0625-2.476563 2.097656-3.730469 3.128906zm-237.421875 13.320312c-2.515625-1.640625-5.007813-3.316406-7.449219-5.074218-1.332031-.957032-2.640625-1.945313-3.949219-2.9375-2.277344-1.722657-4.523437-3.496094-6.726562-5.316407-1.261719-1.039062-2.519532-2.078125-3.753906-3.148437-.644532-.558594-1.25-1.15625-1.882813-1.71875 1.136719-1.007813 2.222656-2.0625 3.386719-3.042969 1.058594-.894531 2.113281-1.792969 3.191406-2.667969 3.835938-3.101562 7.757812-6.117187 11.84375-8.945312.171875-.121094.359375-.226563.53125-.347656 3.957031-2.71875 8.050781-5.269532 12.226562-7.722657 1.1875-.699219 2.394532-1.378906 3.597657-2.054687 1.285156-.722656 2.632812-1.359375 3.933593-2.058594.109376.308594.226563.59375.335938.898438.542969 1.535156 1.121094 3.007812 1.679688 4.511718.839843 2.246094 1.671874 4.492188 2.550781 6.667969.640625 1.59375 1.316406 3.128906 1.980469 4.683594.84375 1.980469 1.691406 3.960937 2.570312 5.875.722656 1.578125 1.472656 3.105469 2.21875 4.640625.871094 1.789062 1.742188 3.570312 2.640625 5.296875.785156 1.507812 1.589844 2.972656 2.394531 4.429687.914063 1.65625 1.835938 3.292969 2.777344 4.882813.832031 1.410156 1.675781 2.78125 2.53125 4.140625.957031 1.527344 1.925781 3.023437 2.90625 4.484375.882812 1.3125 1.773438 2.597656 2.671875 3.855469.996094 1.390624 2 2.738281 3.019531 4.066406.929688 1.210937 1.863282 2.410156 2.8125 3.566406 1.03125 1.257812 2.074219 2.460938 3.125 3.652344.972656 1.101562 1.945313 2.199218 2.933594 3.242187.34375.363281.671875.773438 1.015625 1.128907-.765625-.207032-1.535156-.394532-2.300781-.570313-.757813-.179687-1.527344-.359375-2.261719-.589844-.011719-.003906-.023437-.007812-.035156-.011719-2.683594-.828124-5.484375-1.789062-8.4375-2.871093-2.429688-.890625-4.941407-1.847657-7.710938-2.964844l-2.089843-.761719c-.003907 0-.011719 0-.015626-.003906-3.273437-1.371094-6.550781-2.886719-9.808593-4.464844-2.140625-1.035156-4.300781-2.117187-6.484375-3.261718-.203125-.105469-.40625-.203126-.613282-.3125-.007812-.011719-.015624-.011719-.035156-.019532-.007812-.003906-.019531-.003906-.027344-.007812-.070312-.035156-.132812-.066406-.203124-.101563-.039063-.019531-.0625-.035156-.097657-.050781-3.878906-2.078125-7.671875-4.3125-11.402343-6.640625-1.214844-.753906-2.394532-1.570313-3.589844-2.355469zm33.460937-289.199218c.683594-1.863282 1.375-3.710938 2.082031-5.519532.515626-1.308594 1.039063-2.601562 1.566407-3.882812.726562-1.765625 1.472656-3.492188 2.226562-5.199219.535157-1.21875 1.074219-2.441406 1.625-3.628906.816407-1.765625 1.65625-3.472657 2.503907-5.167969.511718-1.035156 1.019531-2.09375 1.542968-3.105469 1.128906-2.171875 2.285156-4.265625 3.457032-6.316406.269531-.46875.523437-.96875.789062-1.429687 1.429688-2.449219 2.894531-4.800782 4.382812-7.074219.53125-.8125 1.078126-1.566407 1.617188-2.355469 1-1.46875 2.007812-2.921875 3.03125-4.3125.625-.847656 1.265625-1.65625 1.902344-2.472656.960937-1.238282 1.929687-2.453125 2.910156-3.621094.671875-.796875 1.347656-1.578125 2.027344-2.34375.988281-1.113281 1.992187-2.1875 2.996094-3.230469.671874-.695312 1.339843-1.390625 2.015624-2.050781 1.089844-1.0625 2.191407-2.058594 3.300782-3.035156.605468-.539063 1.207031-1.101563 1.816406-1.609375 1.453125-1.210938 2.921875-2.335938 4.402344-3.394531.277344-.199219.546875-.433594.824218-.625 1.761719-1.226563 3.539063-2.332032 5.328126-3.339844.519531-.292969 1.046874-.527344 1.570312-.800782 1.285156-.675781 2.570312-1.320312 3.871094-1.882812.65625-.28125 1.316406-.519531 1.976562-.773438 1.183594-.453124 2.367188-.875 3.554688-1.230468.699218-.210938 1.398437-.398438 2.097656-.574219.542969-.136719 1.085938-.222656 1.628906-.339844v100.546875c-.242187-.011718-.488281-.011718-.730468-.023437-5.148438-.253907-10.265626-.742188-15.359376-1.394531-1.125-.144532-2.25-.308594-3.375-.472657-5.15625-.753906-10.292968-1.648437-15.382812-2.808593-.351562-.082032-.699219-.1875-1.050781-.269532-4.84375-1.132812-9.648438-2.492187-14.417969-3.996094-1.039062-.328124-2.082031-.636718-3.113281-.984374-4.875-1.621094-9.707031-3.429688-14.492188-5.4375-.34375-.144532-.683593-.304688-1.027343-.453126.15625-.460937.304687-.945312.464843-1.40625.46875-1.347656.953125-2.664062 1.4375-3.984374zm89.0625-78.402344c1.1875.355468 2.367188.777344 3.550781 1.230468.660157.253907 1.324219.492188 1.980469.777344 1.296875.558594 2.582031 1.203125 3.867188 1.875.523437.277344 1.050781.511719 1.570312.804688 1.789063 1.007812 3.566407 2.113281 5.328125 3.339844.28125.195312.550782.429687.832032.628906 1.472656 1.058594 2.941406 2.175781 4.390624 3.386718.613282.511719 1.21875 1.078126 1.828126 1.617188 1.105468.976562 2.207031 1.972656 3.292968 3.03125.675782.660156 1.34375 1.355469 2.015625 2.050781 1.007813 1.042969 2.007813 2.117188 3 3.230469.679688.765625 1.355469 1.546875 2.027344 2.34375.976563 1.167969 1.945313 2.378906 2.902344 3.613281.640625.824219 1.28125 1.636719 1.910156 2.488281 1.027344 1.386719 2.035156 2.84375 3.035156 4.3125.535157.78125 1.078125 1.535157 1.605469 2.339844 1.488281 2.277344 2.957031 4.628906 4.386719 7.082032.273437.46875.527343.976562.800781 1.449218 1.164062 2.042969 2.316406 4.128906 3.441406 6.289063.53125 1.019531 1.039063 2.085937 1.558594 3.132812.84375 1.691407 1.679688 3.390625 2.492188 5.148438.550781 1.1875 1.089843 2.410156 1.628906 3.628906.753906 1.703125 1.496094 3.429687 2.222656 5.191406.53125 1.289063 1.054688 2.589844 1.574219 3.910157.703125 1.789062 1.386719 3.617187 2.0625 5.464843.488281 1.339844.984375 2.671875 1.457031 4.039063.160156.453125.304688.929687.460938 1.390625-.339844.140625-.671876.300781-1.011719.441406-4.796875 2.015625-9.644531 3.828125-14.53125 5.457031-1.015625.335938-2.035157.640625-3.054688.960938-4.792969 1.511718-9.617187 2.878906-14.484375 4.015625-.339844.082031-.671875.183593-1.007812.257812-5.09375 1.164063-10.234375 2.058594-15.402344 2.8125-1.117188.164063-2.238281.328125-3.363281.472657-5.09375.652343-10.210938 1.140624-15.363281 1.394531-.246094.015625-.492188.011719-.734376.023437v-100.546875c.542969.117188 1.089844.203125 1.628907.339844.703125.175781 1.402343.363281 2.101562.574219zm63.296875 319.949218c-.671875 1.835938-1.351562 3.652344-2.050781 5.4375-.519531 1.324219-1.046875 2.632813-1.582031 3.925782-.726563 1.757812-1.464844 3.480468-2.21875 5.179687-.539063 1.21875-1.074219 2.445313-1.628906 3.632813-.8125 1.757812-1.648438 3.460937-2.492188 5.152344-.519531 1.042968-1.03125 2.113281-1.5625 3.132812-1.121094 2.160156-2.269531 4.242188-3.4375 6.285156-.269531.472656-.527344.984375-.800781 1.449219-1.433594 2.457031-2.898438 4.808594-4.386719 7.085937-.527344.804688-1.070312 1.554688-1.601562 2.335938-1.003907 1.472656-2.011719 2.929688-3.039063 4.320312-.628906.847657-1.265625 1.65625-1.902344 2.476563-.964843 1.242187-1.9375 2.460937-2.917969 3.628906-.667968.792969-1.335937 1.566407-2.011718 2.324219-.996094 1.125-2.007813 2.207031-3.023438 3.257812-.660156.6875-1.320312 1.375-1.992187 2.027344-1.09375 1.066406-2.199219 2.070313-3.308594 3.050782-.609375.535156-1.210937 1.097656-1.820313 1.605468-1.460937 1.21875-2.9375 2.347656-4.421874 3.414063-.269532.191406-.53125.414062-.796876.601562-1.761718 1.226563-3.542968 2.335938-5.335937 3.34375-.511719.289063-1.03125.519531-1.546875.789063-1.292969.679687-2.585938 1.328125-3.890625 1.894531-.652344.28125-1.308594.515625-1.964844.765625-1.1875.457031-2.375.882812-3.570312 1.238281-.695313.210938-1.390625.394531-2.085938.570313-.542969.136718-1.089843.222656-1.636719.339844v-100.550782c.25.011719.5.007813.75.019532 5.140626.257812 10.253907.742187 15.335938 1.394531 1.132812.144531 2.261719.308593 3.390625.472656 5.160156.753906 10.296875 1.648437 15.386719 2.8125.335937.078125.671875.179687 1.007812.257813 4.871094 1.136718 9.695313 2.503906 14.488282 4.015624 1.015624.320313 2.03125.625 3.042968.960938 4.890625 1.625 9.738282 3.441406 14.539063 5.457031.339843.140625.671875.300781 1.011719.445313-.15625.453125-.300782.925781-.457032 1.375-.476562 1.378906-.972656 2.722656-1.46875 4.074218zm-86.949218 78.925782c-.695313-.175782-1.390626-.359375-2.082032-.570313-1.195312-.359375-2.386718-.78125-3.574218-1.238281-.652344-.25-1.308594-.484375-1.960938-.765625-1.304688-.566406-2.601562-1.214844-3.898438-1.894531-.511718-.269532-1.03125-.5-1.539062-.789063-1.796875-1.007812-3.574219-2.117187-5.339844-3.34375-.265625-.1875-.523437-.40625-.789062-.597656-1.488282-1.070313-2.96875-2.199219-4.433594-3.417969-.605469-.507812-1.203125-1.066406-1.804688-1.601562-1.113281-.980469-2.222656-1.984375-3.320312-3.054688-.667969-.652344-1.328125-1.339844-1.992188-2.027344-1.015624-1.050781-2.023437-2.132812-3.023437-3.257812-.671875-.757812-1.34375-1.53125-2.007813-2.324219-.988281-1.171875-1.960937-2.390625-2.925781-3.636719-.632812-.8125-1.269531-1.617187-1.894531-2.464843-1.027344-1.386719-2.03125-2.84375-3.035156-4.316407-.535156-.785156-1.082032-1.539062-1.613282-2.351562-1.488281-2.273438-2.953124-4.625-4.382812-7.078125-.269531-.460937-.523438-.960937-.789062-1.429687-1.171876-2.050782-2.328126-4.144532-3.457032-6.3125-.523437-1.011719-1.027344-2.070313-1.542968-3.105469-.847657-1.699219-1.6875-3.40625-2.503907-5.171875-.550781-1.1875-1.089843-2.414063-1.628906-3.632813-.75-1.703125-1.492187-3.425781-2.21875-5.183593-.53125-1.289063-1.054687-2.589844-1.574219-3.90625-.703125-1.796876-1.390625-3.632813-2.070312-5.488282-.488282-1.332031-.976563-2.660156-1.449219-4.019531-.160156-.457031-.308594-.933594-.464844-1.394531.34375-.144532.6875-.308594 1.03125-.453125 4.789063-2.007813 9.621094-3.820313 14.496094-5.441407 1.03125-.34375 2.070313-.652343 3.105469-.976562 4.769531-1.503906 9.574218-2.863281 14.417968-4 .355469-.082031.703126-.1875 1.054688-.269531 5.085938-1.160157 10.214844-2.054688 15.371094-2.804688 1.132812-.167969 2.265625-.332031 3.402344-.476562 5.082031-.652344 10.1875-1.136719 15.324218-1.394531.25-.011719.5-.007813.75-.019532v100.550782c-.546875-.113282-1.09375-.203126-1.636718-.339844zm-76.957032-119.773438c-1.464844-6.878906-2.722656-13.902344-3.800781-21.035156-.179687-1.1875-.433594-2.332031-.601563-3.527344-1.175781-8.316406-2.046874-16.792968-2.6875-25.351562-.191406-2.578125-.253906-5.199219-.398437-7.796875-.238281-4.34375-.355469-8.714844-.457031-13.097657h86.539062v72.019532c-.367187.015625-.726562.078125-1.09375.09375-5.519531.257812-11.007812.742187-16.464844 1.421875-1.210937.148437-2.417968.335937-3.628906.503906-5.246094.742187-10.46875 1.636719-15.648437 2.765625-.414063.089844-.835938.152344-1.253907.246094-5.46875 1.226562-10.886718 2.734375-16.269531 4.390625-1.210937.371093-2.421875.746093-3.625 1.140625-5.339843 1.746094-10.644531 3.65625-15.886719 5.820312-.089843.039063-.179687.0625-.265624.097656-.902344-3.304687-1.824219-6.589843-2.628907-9.976562-.613281-2.570312-1.269531-5.101562-1.828125-7.714844zm-7.089844-109.980468c.640626-8.5625 1.511719-17.042969 2.6875-25.367188.167969-1.171875.414063-2.296875.589844-3.460938 1.082032-7.15625 2.34375-14.203124 3.816406-21.101562.554688-2.605469 1.207032-5.128906 1.816407-7.691406.808593-3.394532 1.734375-6.6875 2.636719-10 .085937.039062.175781.0625.265624.097656 5.246094 2.167969 10.550782 4.078125 15.894532 5.824219 1.199218.390625 2.402344.765625 3.605468 1.136719 5.386719 1.65625 10.804688 3.164062 16.273438 4.390624.425781.09375.859375.160157 1.285156.25 5.175782 1.128907 10.394532 2.019532 15.636719 2.761719 1.203125.171875 2.402344.355469 3.609375.503907 5.457031.679687 10.945312 1.164062 16.464844 1.421874.371094.015626.730468.078126 1.101562.09375v72.027344h-86.539062c.101562-4.382812.21875-8.753906.460937-13.101562.140625-2.59375.203125-5.207032.394531-7.785156zm121.539063-52.65625c1.207031-.148438 2.40625-.332032 3.609375-.503907 5.234375-.738281 10.449219-1.628906 15.617188-2.753906.433593-.097656.875-.160156 1.308593-.257813 5.445313-1.222656 10.835938-2.722656 16.195313-4.367187 1.257812-.386719 2.511718-.777344 3.761718-1.1875 5.277344-1.722656 10.519532-3.609375 15.703126-5.746094.121093-.054687.25-.089843.375-.140625.894531 3.289063 1.8125 6.554688 2.613281 9.921875.617187 2.59375 1.28125 5.148438 1.84375 7.785157 1.464843 6.878906 2.722656 13.910156 3.804687 21.042968.175782 1.179688.429688 2.316406.59375 3.5 1.179688 8.320313 2.046875 16.804688 2.6875 25.363282.191406 2.578124.253906 5.195312.398438 7.789062.238281 4.347656.359375 8.71875.457031 13.097656h-86.539063v-72.027344c.371094-.015624.734376-.078124 1.101563-.09375 5.523437-.257812 11.011719-.742187 16.46875-1.421874zm68.113281 112.722656c-.640625 8.554687-1.507812 17.03125-2.683594 25.347656-.171874 1.207031-.425781 2.363281-.609374 3.5625-1.074219 7.113281-2.332032 14.121094-3.792969 20.980469-.5625 2.644531-1.226563 5.207031-1.847657 7.808593-.800781 3.359376-1.714843 6.617188-2.609374 9.898438-.125-.050781-.253907-.085938-.375-.136719-5.183594-2.140625-10.425782-4.023437-15.703126-5.75-1.25-.410156-2.507812-.800781-3.761718-1.1875-5.359375-1.644531-10.75-3.144531-16.195313-4.363281-.433593-.097656-.875-.164062-1.3125-.261719-5.167969-1.121093-10.375-2.015625-15.613281-2.753906-1.203125-.171875-2.402344-.355469-3.609375-.503906-5.460937-.679688-10.953125-1.164063-16.476563-1.421875-.367187-.015625-.726562-.078125-1.09375-.09375v-72.019532h86.539063c-.097656 4.378907-.21875 8.75-.457031 13.09375-.144532 2.597657-.207032 5.21875-.398438 7.800782zm51.933594 107.382812c-1.445312-1.296875-2.980469-2.492187-4.460938-3.75-1.324218-1.125-2.640624-2.261718-3.996093-3.359375-3.761719-3.042969-7.625-5.96875-11.601563-8.769531-.546875-.382812-1.058594-.800781-1.605468-1.179688-4.566407-3.148437-9.292969-6.101562-14.121094-8.925781-1.3125-.765625-2.664063-1.472656-3.992188-2.214843-2.210937-1.230469-4.378906-2.519532-6.640625-3.683594.171875-.613282.289063-1.269532.460938-1.882813 1.773437-6.429687 3.390625-12.992187 4.824219-19.699219.246093-1.152343.460937-2.316406.695312-3.472656 1.4375-7.058594 2.734375-14.210937 3.785156-21.503906.007813-.054688.019532-.105469.027344-.160156 1.054688-7.34375 1.851562-14.808594 2.507812-22.328125.109376-1.238281.230469-2.460938.324219-3.703125.566407-7.226563.9375-14.511719 1.128907-21.835938.015624-.605468.078124-1.199218.09375-1.808594h86.75c-2.136719 48.101563-21.128907 93.074219-54.179688 128.277344zm-32.570312-146.5625c-.015626-.605468-.078126-1.199218-.09375-1.804687-.191407-7.332031-.5625-14.621094-1.128907-21.851563-.09375-1.230468-.214843-2.441406-.324219-3.664062-.65625-7.539063-1.457031-15.023438-2.511718-22.386719-.003906-.003906-.003906-.011719-.003906-.015625-1.0625-7.382812-2.378907-14.617188-3.832032-21.757812-.21875-1.082032-.421875-2.167969-.652344-3.242188-1.453124-6.8125-3.09375-13.476562-4.902343-20-.148438-.546875-.253907-1.132812-.410157-1.679688 2.210938-1.136718 4.324219-2.394531 6.484376-3.59375 1.402343-.78125 2.828124-1.527343 4.207031-2.332031 4.816406-2.816406 9.527343-5.761719 14.078125-8.898437.519531-.359375 1.003906-.753906 1.515625-1.113282 4.023437-2.824218 7.925781-5.785156 11.722656-8.859374 1.324219-1.070313 2.609375-2.179688 3.90625-3.28125 1.496094-1.273438 3.054687-2.484376 4.515625-3.796876 33.050781 35.207032 52.042969 80.171876 54.179688 128.277344zm19.3125-141.183594c-1.179688 1.042969-2.308594 2.136719-3.511719 3.152344-1.035157.875-2.0625 1.75-3.117188 2.601563-3.839843 3.109375-7.769531 6.125-11.859375 8.957031-.21875.152344-.453125.289062-.675781.441406-3.890625 2.671875-7.921875 5.179688-12.027344 7.597656-1.242187.730469-2.5 1.4375-3.761719 2.144532-1.257812.707031-2.574218 1.332031-3.847656 2.011718-.105468-.308593-.226562-.59375-.332031-.898437-.554687-1.5625-1.140625-3.058594-1.710937-4.585937-.832032-2.230469-1.664063-4.46875-2.535157-6.628907-.640625-1.589843-1.316406-3.121093-1.976562-4.675781-.855469-2-1.710938-4.003906-2.597657-5.9375-.710937-1.546875-1.445312-3.039062-2.175781-4.542969-.894531-1.839843-1.792969-3.671875-2.71875-5.445312-.761719-1.460938-1.542969-2.875-2.324219-4.292969-.945312-1.710938-1.894531-3.402344-2.867187-5.042969-.808594-1.363281-1.628906-2.6875-2.457031-4.003906-.992188-1.582031-1.992188-3.136719-3.011719-4.648437-.851563-1.261719-1.710937-2.492188-2.578125-3.703126-1.039062-1.453124-2.089844-2.863281-3.152344-4.242187-.890625-1.160156-1.792968-2.300781-2.703125-3.410156-1.070312-1.308594-2.160156-2.566407-3.253906-3.800781-.941406-1.0625-1.882813-2.117188-2.84375-3.128907-.40625-.429687-.800781-.910156-1.210937-1.332031 29.148437 8.144531 56.179687 22.875 79.25 43.414062zm-188.953126-42.089843c-.980468 1.03125-1.945312 2.109375-2.910156 3.199219-1.050781 1.191406-2.097656 2.398437-3.128906 3.652343-.964844 1.179688-1.921875 2.390625-2.871094 3.628907-.992187 1.289062-1.972656 2.609374-2.945312 3.960937-.9375 1.308594-1.867188 2.640625-2.785156 4.003906-.941407 1.402344-1.871094 2.84375-2.792969 4.308594-.894531 1.421875-1.78125 2.855469-2.65625 4.332031-.90625 1.53125-1.789063 3.109375-2.671875 4.699219-.839844 1.515625-1.675782 3.03125-2.492188 4.597656-.878906 1.6875-1.730468 3.429688-2.582031 5.179688-.769531 1.574219-1.539063 3.140625-2.285156 4.765625-.863281 1.882812-1.695313 3.828125-2.527344 5.777344-.679687 1.589843-1.371094 3.164062-2.03125 4.796874-.863281 2.144532-1.6875 4.363282-2.515625 6.578126-.574219 1.539062-1.164062 3.046874-1.722656 4.621093-.105469.300781-.222656.585938-.332032.890625-1.3125-.703125-2.667968-1.347656-3.964843-2.074218-1.183594-.664063-2.367188-1.332032-3.535157-2.019532-4.207031-2.472656-8.335937-5.042968-12.320312-7.78125-.148438-.105468-.304688-.195312-.453125-.296875-4.101563-2.839843-8.039063-5.863281-11.890625-8.980469-1.050781-.851562-2.082031-1.726562-3.113281-2.597656-1.207031-1.015625-2.335938-2.109375-3.511719-3.152344 23.0625-20.535156 50.089844-35.257812 79.242188-43.414062-.410157.417969-.796876.894531-1.203126 1.324219zm-91.296874 54.996093c1.4375 1.292969 2.96875 2.484376 4.441406 3.734376 1.34375 1.140624 2.671875 2.289062 4.042968 3.394531 3.695313 2.988281 7.492188 5.863281 11.398438 8.613281.613281.433594 1.195312.90625 1.816406 1.335938 4.535156 3.128906 9.238282 6.066406 14.039063 8.875 1.363281.792968 2.765625 1.53125 4.148437 2.300781 2.175782 1.210937 4.304688 2.476562 6.53125 3.621093-.15625.550782-.261718 1.136719-.414062 1.6875-1.804688 6.523438-3.445313 13.179688-4.898438 19.988282-.230468 1.082031-.433594 2.175781-.65625 3.261718-1.445312 7.109376-2.753906 14.316407-3.8125 21.664063-.007812.039063-.015625.078125-.019531.117187-1.054687 7.339844-1.851563 14.800782-2.507813 22.316407-.109374 1.25-.230468 2.488281-.328124 3.738281-.566407 7.214844-.9375 14.480469-1.125 21.789062-.015626.617188-.082032 1.222657-.09375 1.839844h-86.75c2.132812-48.105468 21.125-93.070312 54.1875-128.277344zm32.5625 146.5625c.011718.617188.078124 1.222657.09375 1.839844.1875 7.308594.558593 14.578125 1.125 21.789063.097656 1.253906.21875 2.488281.328124 3.738281.65625 7.515625 1.453126 14.980469 2.507813 22.320312.003906.035157.011719.070313.019531.109376 1.054688 7.351562 2.367188 14.558593 3.816406 21.671874.21875 1.082032.421876 2.175782.652344 3.253907 1.453125 6.808593 3.09375 13.472656 4.902344 20 .152344.542969.257812 1.128906.410156 1.671875-2.226562 1.144531-4.355468 2.410156-6.53125 3.621094-1.382812.769531-2.789062 1.507812-4.152344 2.304687-4.804687 2.808594-9.507812 5.746094-14.046874 8.878906-.617188.425781-1.191407.894531-1.800782 1.324219-3.90625 2.753906-7.699218 5.625-11.394531 8.613281-1.386719 1.121094-2.734375 2.285157-4.089844 3.441407-1.460937 1.242187-2.980469 2.421874-4.402343 3.699218-33.0625-35.214844-52.054688-80.175781-54.1875-128.277344zm0 0"/></svg>